#N canvas 93 43 1643 950 10;
#X declare -path .;
#X declare -path rj;
#X declare -path ../pd;
#X declare -path ../../pd;
#X declare -path samples;
#X obj 517 18 declare -path .;
#X obj 517 46 declare -path rj;
#N canvas 0 22 448 215 more_paths 0;
#X text 27 19 You can add more paths here as well \, like the path
to soundoutput.pd on your computer etc.;
#X obj 36 57 declare -path ../pd;
#X obj 35 79 declare -path ../../pd;
#X restore 633 47 pd more_paths;
#X obj 452 1085 soundoutput;
#X obj 168 526 bng 30 250 50 0 empty empty empty 17 7 0 10 -257985
-1 -1;
#N canvas 757 23 689 600 starSynth 0;
#X obj 73 264 makenote 20 1000;
#X obj 73 304 pack 0 0;
#X floatatom 102 238 5 0 0 0 - - -;
#X obj 73 395 u_makepoly 8 1 s_rhodey \$0-MYINST;
#N canvas 607 276 460 351 pentatonic 0;
#X obj 28 33 inlet;
#X obj 207 34 inlet;
#X text 27 10 pentatonic step;
#X text 207 11 base note;
#X text 311 9 Pentatonic copy of RJlib's m_majorscale;
#X obj 28 79 t a a;
#X obj 235 123 loadbang;
#X msg 235 152 0 0 2 5 7 9;
#X obj 234 183 s \$0-penta;
#X obj 233 216 table \$0-penta 5;
#X obj 86 151 * 12;
#X obj 27 183 tabread \$0-penta;
#X obj 27 214 +;
#X obj 27 244 + \$1;
#X obj 27 277 outlet;
#X obj 28 120 mod 5;
#X obj 86 119 div 5;
#X floatatom 42 150 5 0 0 0 - - -;
#X connect 0 0 5 0;
#X connect 1 0 13 1;
#X connect 5 0 15 0;
#X connect 5 1 16 0;
#X connect 6 0 7 0;
#X connect 7 0 8 0;
#X connect 10 0 12 1;
#X connect 11 0 12 0;
#X connect 12 0 13 0;
#X connect 13 0 14 0;
#X connect 15 0 11 0;
#X connect 15 0 17 0;
#X connect 16 0 10 0;
#X restore 73 193 pd pentatonic;
#N canvas 1306 279 450 300 firebangs 0;
#X obj 36 45 inlet;
#X obj 131 46 inlet;
#X obj 35 256 outlet;
#X obj 36 88 metro;
#X obj 262 48 inlet;
#X text 33 14 Starting bang;
#X text 131 15 Number of notes;
#X text 261 18 Interval;
#X obj 172 166 counter;
#X msg 115 256 stop;
#X floatatom 170 200 5 0 0 0 - - -;
#X floatatom 170 245 5 0 0 0 - - -;
#X obj 90 273 bng 15 250 50 0 empty empty empty 17 7 0 10 -262144 -1
-1;
#X floatatom 129 171 5 0 0 0 - - -;
#X obj 98 208 select;
#X connect 0 0 3 0;
#X connect 0 0 8 3;
#X connect 1 0 13 0;
#X connect 3 0 8 0;
#X connect 3 0 2 0;
#X connect 3 0 13 0;
#X connect 4 0 3 1;
#X connect 8 0 10 0;
#X connect 8 0 14 0;
#X connect 9 0 3 0;
#X connect 13 0 14 1;
#X connect 14 0 9 0;
#X restore 72 117 pd firebangs;
#X obj 205 267 makenote 20 1000;
#X obj 206 325 pack 0 0;
#X obj 205 240 + 7;
#X obj 73 152 random 16;
#X obj 368 270 makenote 20 1000;
#X obj 369 339 pack 0 0;
#X obj 368 241 * 2;
#X obj 71 30 inlet;
#X obj 143 28 inlet;
#X obj 234 28 inlet;
#X text 56 4 Bang to play;
#X text 145 5 Number of notes;
#X text 253 5 Note interval (time);
#X obj 75 496 outlet~;
#X obj 269 497 outlet~;
#X obj 497 32 inlet;
#X text 540 9 Root note;
#X floatatom 308 117 5 0 0 0 - - -;
#X obj 376 30 inlet;
#X text 389 5 Melody seed (unique);
#X obj 228 112 print seed;
#X msg 228 81 seed \$1;
#X obj 551 212 vsl 15 128 0 1 0 0 empty empty Synth_volume 0 -9 0 10
-261682 -1 -1 6350 1;
#X obj 78 463 *~ 0.5;
#X obj 269 467 *~ 0.5;
#X obj 551 121 r loadbang;
#X msg 551 158 0.5;
#X obj 35 236 vsl 15 128 60 100 0 0 empty empty empty 0 -9 0 10 -262144
-1 -1 0 1;
#X connect 0 0 1 0;
#X connect 0 1 1 1;
#X connect 1 0 3 0;
#X connect 3 0 29 0;
#X connect 3 1 30 0;
#X connect 4 0 0 0;
#X connect 4 0 2 0;
#X connect 4 0 8 0;
#X connect 4 0 12 0;
#X connect 4 0 33 0;
#X connect 5 0 9 0;
#X connect 6 0 7 0;
#X connect 6 1 7 1;
#X connect 7 0 3 0;
#X connect 8 0 6 0;
#X connect 9 0 4 0;
#X connect 10 0 11 0;
#X connect 10 1 11 1;
#X connect 11 0 3 0;
#X connect 12 0 10 0;
#X connect 13 0 5 0;
#X connect 14 0 5 1;
#X connect 15 0 5 2;
#X connect 21 0 23 0;
#X connect 23 0 4 1;
#X connect 24 0 27 0;
#X connect 27 0 26 0;
#X connect 27 0 9 0;
#X connect 28 0 29 1;
#X connect 28 0 30 1;
#X connect 29 0 19 0;
#X connect 30 0 20 0;
#X connect 31 0 32 0;
#X connect 32 0 28 0;
#X restore 168 762 pd starSynth;
#X obj 268 563 r loadbang;
#X msg 268 593 4;
#X msg 303 593 200;
#X obj 14 158 s rootnote;
#X obj 774 736 r rootnote;
#X obj 238 735 r rootnote;
#N canvas 1151 540 564 330 baseChordProgression 0;
#X obj 220 53 counter;
#X obj 283 134 loadbang;
#X obj 220 15 inlet;
#X obj 86 251 outlet;
#X floatatom 150 221 5 0 0 0 - - -;
#X obj 279 14 bng 15 250 50 0 empty empty empty 17 7 0 10 -262144 -1
-1;
#X floatatom 220 95 5 0 0 0 - - -;
#X obj 283 86 select 4;
#X obj 86 187 tabread \$0-chordProgression;
#X obj 283 195 s \$0-chordProgression;
#X msg 283 165 0 69 62 72 67;
#X obj 291 227 table \$0-chordProgression 5;
#X connect 0 0 6 0;
#X connect 0 0 7 0;
#X connect 1 0 10 0;
#X connect 2 0 0 0;
#X connect 5 0 0 0;
#X connect 6 0 8 0;
#X connect 7 0 0 3;
#X connect 8 0 3 0;
#X connect 8 0 4 0;
#X connect 10 0 9 0;
#X restore 14 120 pd baseChordProgression;
#X obj 16 34 bng 30 250 50 0 empty empty Start_Chord_Progression 37
7 0 10 -4034 -1 -1;
#X obj 211 20 bng 30 250 50 0 empty empty Stop_Chord_Progression 37
7 0 10 -258113 -1 -1;
#X msg 211 57 stop;
#X obj 15 77 metro 10000;
#X obj 404 119 print OSCmsg;
#X obj 384 85 dumpOSC 8000;
#N canvas 969 613 459 315 globalFX 0;
#X obj 43 17 inlet~;
#X obj 284 12 inlet~;
#X obj 41 234 outlet~;
#X obj 288 234 outlet~;
#X obj 117 60 e_chorus;
#X obj 256 51 e_sdelay 500;
#X obj 257 86 *~ 0.5;
#X obj 256 116 e_sdelay 250;
#N canvas 413 554 784 438 plateReverbUnit 0;
#X obj 68 45 inlet~;
#X obj 172 53 inlet~;
#X obj 52 240 outlet~;
#X obj 185 241 outlet~;
#X obj 108 159 e_platereverb;
#X obj 252 42 loadbang;
#X msg 252 93 predelay 0.535 \, bandwidth 22050 \, damping 22050 \,
decay 0.677165 \, input_diffusion1 0.850394 \, input_diffusion2 0.92126
\, decay_diffusion1 0.80315 \, decay_diffusion2 0.818898 \, excursion
0.11811 \, dry 0.1 \;;
#X connect 0 0 4 0;
#X connect 1 0 4 1;
#X connect 4 0 2 0;
#X connect 4 1 3 0;
#X connect 5 0 6 0;
#X connect 6 0 4 2;
#X restore 126 168 pd plateReverbUnit;
#X connect 0 0 4 0;
#X connect 1 0 5 0;
#X connect 4 0 8 0;
#X connect 4 1 8 1;
#X connect 5 0 6 0;
#X connect 5 0 8 0;
#X connect 6 0 7 0;
#X connect 7 0 8 1;
#X connect 8 0 2 0;
#X connect 8 1 3 0;
#X restore 171 835 pd globalFX;
#N canvas 2977 155 830 665 playConstellationControl 0;
#X obj 27 22 inlet;
#X text 73 22 OSC message input;
#X obj 566 620 outlet;
#X text 622 620 output bang to start;
#X floatatom 27 164 5 0 0 0 - - -;
#X floatatom 62 165 5 0 0 0 - - -;
#X floatatom 98 165 5 0 0 0 - - -;
#X floatatom 137 165 5 0 0 0 - - -;
#X obj 27 245 int;
#X floatatom 27 278 5 0 0 0 - - -;
#X obj 561 589 bng 15 250 50 0 empty empty empty 17 7 0 10 -262144
-1 -1;
#X obj 66 615 outlet;
#X obj 249 614 outlet;
#X text 117 616 Number of notes;
#X text 303 615 Melody speed;
#X obj 394 614 outlet;
#X text 447 614 Seed;
#X obj 74 278 +;
#X obj 112 278 +;
#X obj 88 331 +;
#X obj 89 376 int;
#X obj 27 208 m_scale 0 30 2 6;
#X obj 27 67 unpack f f f f;
#X obj 210 216 m_scale 0 100 100 500;
#X connect 0 0 22 0;
#X connect 4 0 21 0;
#X connect 5 0 17 0;
#X connect 6 0 17 1;
#X connect 6 0 18 0;
#X connect 7 0 18 0;
#X connect 7 0 23 0;
#X connect 8 0 9 0;
#X connect 8 0 10 0;
#X connect 9 0 11 0;
#X connect 10 0 2 0;
#X connect 17 0 19 0;
#X connect 18 0 19 1;
#X connect 19 0 20 0;
#X connect 20 0 15 0;
#X connect 21 0 8 0;
#X connect 22 0 4 0;
#X connect 22 1 5 0;
#X connect 22 2 6 0;
#X connect 22 3 7 0;
#X connect 23 0 12 0;
#X restore 58 673 pd playConstellationControl;
#X obj 387 489 s osc_constellationData;
#X obj 452 454 s osc_grabData;
#X obj 503 429 s osc_keyboard;
#X obj 58 599 r osc_constellationData;
#X obj 402 470 bng 15 250 50 0 empty empty empty 17 7 0 10 -262144
-1 -1;
#X obj 460 433 bng 15 250 50 0 empty empty empty 17 7 0 10 -262144
-1 -1;
#N canvas 2825 224 469 557 grabSoundControl 0;
#X obj 21 16 inlet;
#X floatatom 22 153 5 0 0 0 - - -;
#X floatatom 99 132 5 0 0 0 - - -;
#X obj 34 506 outlet;
#X obj 35 330 line;
#X floatatom 34 464 5 0 0 0 - - -;
#X obj 120 184 bng 15 250 50 0 empty empty empty 17 7 0 10 -262144
-1 -1;
#X obj 176 212 delay 200;
#X obj 21 57 unpack f f;
#X obj 34 420 m_scale 0 500 0 1;
#X msg 28 254 \$1 200;
#X obj 192 508 outlet;
#X obj 206 415 m_scale -10 10 -1 1;
#X obj 197 347 line;
#X msg 125 305 \$1 200;
#X msg 176 244 100 500;
#X obj 33 374 clip 100 500;
#X connect 0 0 8 0;
#X connect 1 0 6 0;
#X connect 1 0 10 0;
#X connect 2 0 14 0;
#X connect 4 0 16 0;
#X connect 5 0 3 0;
#X connect 6 0 7 0;
#X connect 7 0 15 0;
#X connect 8 0 1 0;
#X connect 8 1 2 0;
#X connect 9 0 5 0;
#X connect 10 0 4 0;
#X connect 12 0 11 0;
#X connect 13 0 12 0;
#X connect 14 0 13 0;
#X connect 15 0 4 0;
#X connect 16 0 9 0;
#X restore 706 691 pd grabSoundControl;
#X obj 706 668 r osc_grabData;
#X obj 516 75 declare -path samples;
#N canvas 1071 300 898 732 constellationOpenEffect 0;
#X obj 26 12 inlet;
#X text 73 10 Bang to play;
#X obj 29 374 s_playtable;
#X msg 29 271 const-open-sample;
#X msg 92 338 sr 44100;
#X obj 35 690 outlet~;
#X obj 92 304 r loadbang;
#X obj 31 459 *~;
#X obj 271 288 vsl 15 128 0 1 0 0 empty empty Sample_Volume 0 -9 0
10 -261682 -1 -1 6350 1;
#X obj 241 156 soundfiler;
#X obj 241 185 table const-open-sample;
#X msg 242 105 read -resize ../samples/Su-Audio-grab-dry.wav const-open-sample
;
#X obj 242 63 r loadbang;
#X obj 272 220 r loadbang;
#X obj 90 499 delwrite~ \$0-const-open-delay 2000;
#X obj 80 555 e_graindelread TAG \$0-const-open-delay;
#X msg 379 401 pan-r 0.787402 \, delay-r 400 \, delay 500 \, size-r
0 \, size 100 \, vol-r 0.133858 \, vol 0.409449 \, bw 1 \, phase 0.4819
\, grain-rate 30 \,;
#X msg 271 246 0.5;
#X obj 58 54 outlet;
#X obj 383 349 r loadbang;
#X connect 0 0 3 0;
#X connect 0 0 18 0;
#X connect 2 0 7 0;
#X connect 3 0 2 0;
#X connect 4 0 2 1;
#X connect 6 0 4 0;
#X connect 7 0 5 0;
#X connect 7 0 14 0;
#X connect 8 0 7 1;
#X connect 11 0 9 0;
#X connect 12 0 11 0;
#X connect 13 0 17 0;
#X connect 15 0 5 0;
#X connect 15 1 5 0;
#X connect 16 0 15 1;
#X connect 17 0 8 0;
#X connect 19 0 16 0;
#X restore 315 718 pd constellationOpenEffect;
#X obj 744 46 loadbang;
#X obj 744 78 s loadbang;
#N canvas 969 613 459 315 globalFX 0;
#X obj 43 17 inlet~;
#X obj 284 12 inlet~;
#X obj 41 234 outlet~;
#X obj 288 234 outlet~;
#X obj 117 60 e_chorus;
#X obj 256 51 e_sdelay 500;
#X obj 257 86 *~ 0.5;
#X obj 256 116 e_sdelay 250;
#N canvas 413 554 784 438 plateReverbUnit 0;
#X obj 68 45 inlet~;
#X obj 172 53 inlet~;
#X obj 52 240 outlet~;
#X obj 185 241 outlet~;
#X obj 108 159 e_platereverb;
#X obj 252 42 loadbang;
#X msg 252 93 predelay 0.535 \, bandwidth 22050 \, damping 22050 \,
decay 0.677165 \, input_diffusion1 0.850394 \, input_diffusion2 0.92126
\, decay_diffusion1 0.80315 \, decay_diffusion2 0.818898 \, excursion
0.11811 \, dry 0.1 \;;
#X connect 0 0 4 0;
#X connect 1 0 4 1;
#X connect 4 0 2 0;
#X connect 4 1 3 0;
#X connect 5 0 6 0;
#X connect 6 0 4 2;
#X restore 126 168 pd plateReverbUnit;
#X connect 0 0 4 0;
#X connect 1 0 5 0;
#X connect 4 0 8 0;
#X connect 4 1 8 1;
#X connect 5 0 6 0;
#X connect 5 0 8 0;
#X connect 6 0 7 0;
#X connect 7 0 8 1;
#X connect 8 0 2 0;
#X connect 8 1 3 0;
#X restore 704 808 pd globalFX;
#N canvas 523 141 689 600 keysynth 0;
#X obj 73 264 makenote 20 1000;
#X obj 73 304 pack 0 0;
#X floatatom 102 238 5 0 0 0 - - -;
#X obj 73 395 u_makepoly 8 1 s_rhodey \$0-MYINST;
#N canvas 606 192 458 329 pentatonic 0;
#X obj 29 34 inlet;
#X obj 207 34 inlet;
#X text 27 10 pentatonic step;
#X text 207 11 base note;
#X text 311 9 Pentatonic copy of RJlib's m_majorscale;
#X obj 30 79 t a a;
#X obj 235 123 loadbang;
#X msg 235 152 0 0 2 5 7 9;
#X obj 86 151 * 12;
#X obj 24 214 +;
#X obj 25 248 + \$1;
#X obj 23 278 outlet;
#X obj 28 120 mod 5;
#X obj 86 119 div 5;
#X floatatom 42 150 5 0 0 0 - - -;
#X obj 233 216 table \$0-penta2 5;
#X obj 234 183 s \$0-penta2;
#X obj 25 185 tabread \$0-penta2;
#X connect 0 0 5 0;
#X connect 1 0 10 1;
#X connect 5 0 12 0;
#X connect 5 1 13 0;
#X connect 6 0 7 0;
#X connect 7 0 16 0;
#X connect 8 0 9 1;
#X connect 9 0 10 0;
#X connect 10 0 11 0;
#X connect 12 0 14 0;
#X connect 12 0 17 0;
#X connect 13 0 8 0;
#X connect 17 0 9 0;
#X restore 73 193 pd pentatonic;
#X obj 73 152 random 16;
#X obj 71 30 inlet;
#X text 56 4 Bang to play;
#X obj 75 496 outlet~;
#X obj 269 497 outlet~;
#X obj 497 32 inlet;
#X text 540 9 Root note;
#X floatatom 308 117 5 0 0 0 - - -;
#X text 389 5 Melody seed (unique);
#X obj 551 212 vsl 15 128 0 1 0 0 empty empty Synth_volume 0 -9 0 10
-261682 -1 -1 6350 1;
#X obj 78 463 *~ 0.5;
#X obj 269 467 *~ 0.5;
#X obj 120 80 bng 15 250 50 0 empty empty empty 17 7 0 10 -262144 -1
-1;
#X obj 403 69 + 12;
#X obj 552 128 r loadbang;
#X msg 551 158 0.5;
#X connect 0 0 1 0;
#X connect 0 1 1 1;
#X connect 1 0 3 0;
#X connect 3 0 15 0;
#X connect 3 1 16 0;
#X connect 4 0 0 0;
#X connect 4 0 2 0;
#X connect 5 0 4 0;
#X connect 6 0 5 0;
#X connect 10 0 18 0;
#X connect 12 0 4 1;
#X connect 14 0 15 1;
#X connect 14 0 16 1;
#X connect 15 0 8 0;
#X connect 16 0 9 0;
#X connect 17 0 5 0;
#X connect 18 0 12 0;
#X connect 19 0 20 0;
#X connect 20 0 14 0;
#X restore 494 717 pd keysynth;
#X obj 494 608 r osc_keyboard;
#N canvas 969 613 459 315 globalFX 0;
#X obj 43 17 inlet~;
#X obj 284 12 inlet~;
#X obj 41 234 outlet~;
#X obj 288 234 outlet~;
#X obj 117 60 e_chorus;
#N canvas 413 554 784 438 plateReverbUnit 0;
#X obj 68 45 inlet~;
#X obj 172 53 inlet~;
#X obj 52 240 outlet~;
#X obj 185 241 outlet~;
#X obj 108 159 e_platereverb;
#X obj 252 42 loadbang;
#X msg 252 93 predelay 0.535 \, bandwidth 22050 \, damping 22050 \,
decay 0.677165 \, input_diffusion1 0.850394 \, input_diffusion2 0.92126
\, decay_diffusion1 0.80315 \, decay_diffusion2 0.818898 \, excursion
0.11811 \, dry 0.1 \;;
#X connect 0 0 4 0;
#X connect 1 0 4 1;
#X connect 4 0 2 0;
#X connect 4 1 3 0;
#X connect 5 0 6 0;
#X connect 6 0 4 2;
#X restore 126 168 pd plateReverbUnit;
#X connect 0 0 4 0;
#X connect 1 0 5 0;
#X connect 1 0 5 1;
#X connect 4 0 5 0;
#X connect 4 1 5 1;
#X connect 5 0 2 0;
#X connect 5 1 3 0;
#X restore 493 775 pd globalFX;
#X obj 557 687 r rootnote;
#N canvas 951 360 450 300 keyboardControl 1;
#X obj 33 29 inlet;
#X obj 38 253 outlet;
#X obj 38 124 bng 15 250 50 0 empty empty empty 17 7 0 10 -262144 -1
-1;
#X text 84 121 Yeah I know...;
#X floatatom 37 37 5 0 0 0 - - -;
#X obj 37 37;
#X text 39 39 comment;
#X obj 37 37;
#X text 39 39 comment;
#X connect 0 0 2 0;
#X connect 2 0 1 0;
#X restore 494 650 pd keyboardControl;
#X obj 513 406 bng 15 250 50 0 empty empty empty 17 7 0 10 -262144
-1 -1;
#X obj 438 590 bng 30 250 50 0 empty empty empty 17 7 0 10 -257985
-1 -1;
#X obj 157 160 vsl 15 128 60 80 0 0 empty empty empty 0 -9 0 10 -262144
-1 -1 4445 1;
#X obj 315 664 bng 15 250 50 0 empty empty empty 17 7 0 10 -262144
-1 -1;
#N canvas 919 140 845 946 ambience 0;
#X obj 23 17 inlet;
#X obj 62 864 outlet~;
#X obj 196 868 outlet~;
#X obj 64 97 noise~;
#X obj 230 99 noise~;
#X obj 64 211 *~ 0.1;
#X obj 230 208 *~ 0.1;
#X obj 402 54 vsl 15 128 0 1 0 0 empty empty Crackle_level 20 -9 0
10 -262144 -1 -1 10160 1;
#X obj 69 555 e_lop4;
#X floatatom 86 471 5 0 130 1 Filter_Freq - -;
#X obj 86 495 mtof;
#X floatatom 169 496 5 0 0 1 Filter_Q - -;
#X obj 168 521 / 100;
#X obj 86 520 clip 0 22050;
#X obj 67 250 e_chorus;
#X obj 70 600 e_dubdel;
#X msg 187 555 dry 0.2 \, bq 2 \, basedur 500 \, bpitch 83 \, feedback
0.99 \, dell 2 \, delr 3 \,;
#X obj 64 143 expr~ pow($v1 \, 4000);
#X obj 231 140 expr~ pow($v1 \, 1000);
#X obj 416 325 c_lfo AMB_CUT_LFO;
#X obj 401 -10 r loadbang;
#X msg 401 12 0.8;
#X obj 416 467 s amb_lfo_cut;
#X obj 87 424 r amb_lfo_cut;
#X msg 515 296 waveform saw;
#N canvas 302 192 784 438 plateReverbUnit 0;
#X obj 68 45 inlet~;
#X obj 172 53 inlet~;
#X obj 52 240 outlet~;
#X obj 185 241 outlet~;
#X obj 108 159 e_platereverb;
#X obj 256 47 loadbang;
#X msg 255 91 predelay 0 \, bandwidth 22050 \, damping 22050 \, decay
0.677165 \, input_diffusion1 0.450394 \, input_diffusion2 0.32126 \,
decay_diffusion1 0.20315 \, decay_diffusion2 0.918898 \, excursion
0.91811 \, dry 0.1 \;;
#X connect 0 0 4 0;
#X connect 1 0 4 1;
#X connect 4 0 2 0;
#X connect 4 1 3 0;
#X connect 5 0 6 0;
#X connect 6 0 4 2;
#X restore 69 728 pd plateReverbUnit;
#X obj 74 791 e_stereowidener 1;
#X msg 416 294 0.05;
#X obj 416 359 clip 0.8 1;
#X obj 416 383 - 0.8;
#N canvas 924 228 1167 907 crackleSample 0;
#X obj 36 22 inlet;
#X text 83 20 Bang to play;
#X obj 39 384 s_playtable;
#X msg 102 348 sr 44100;
#X obj 41 604 outlet~;
#X obj 102 314 r loadbang;
#X obj 41 463 *~;
#X obj 281 298 vsl 15 128 0 1 0 0 empty empty Sample_Volume 0 -9 0
10 -261682 -1 -1 6350 1;
#X obj 251 166 soundfiler;
#X obj 252 73 r loadbang;
#X obj 282 230 r loadbang;
#X msg 255 115 read -resize ../samples/Su-Audio-crackle.wav crackle-sample
;
#X obj 250 194 table crackle-sample;
#X msg 39 281 crackle-sample;
#X obj 353 59 bng 15 250 50 0 empty empty empty 17 7 0 10 -262144 -1
-1;
#X obj 82 115 random 5;
#X msg 282 257 0.5;
#X obj 46 530 pan~;
#X obj 105 604 outlet~;
#X obj 205 482 random 90;
#X obj 205 509 - 45;
#X obj 87 63 s crackleStartBang;
#X obj 206 453 r crackleStartBang;
#X msg 81 220 crackle-sample 1 \$1 \$2 3000;
#X obj 145 116 random 2000;
#X connect 0 0 13 0;
#X connect 0 0 15 0;
#X connect 0 0 21 0;
#X connect 0 0 24 0;
#X connect 2 0 6 0;
#X connect 3 0 2 1;
#X connect 5 0 3 0;
#X connect 6 0 17 0;
#X connect 7 0 6 1;
#X connect 9 0 11 0;
#X connect 10 0 16 0;
#X connect 11 0 8 0;
#X connect 13 0 2 0;
#X connect 14 0 11 0;
#X connect 15 0 23 0;
#X connect 16 0 7 0;
#X connect 17 0 4 0;
#X connect 17 1 18 0;
#X connect 19 0 20 0;
#X connect 20 0 17 1;
#X connect 22 0 19 0;
#X connect 23 0 2 0;
#X connect 24 0 23 0;
#X restore 643 588 pd crackleSample;
#X obj 643 514 bng 15 250 50 0 empty empty empty 17 7 0 10 -262144
-1 -1;
#X obj 639 361 r loadbang;
#X obj 639 425 random 5;
#X obj 596 347 bng 15 250 50 0 empty empty empty 17 7 0 10 -262144
-1 -1;
#X floatatom 590 458 5 0 0 0 - - -;
#X obj 639 394 metro 2000;
#X obj 639 460 select 3;
#X obj 416 408 * 100;
#X obj 415 434 + 100;
#X obj 515 719 s_buzz;
#X obj 414 246 r loadbang;
#X floatatom 371 386 5 0 0 0 - - -;
#X obj 273 512 r loadbang;
#X connect 3 0 17 0;
#X connect 4 0 18 0;
#X connect 5 0 14 0;
#X connect 6 0 8 0;
#X connect 7 0 6 1;
#X connect 7 0 5 1;
#X connect 8 0 15 0;
#X connect 8 0 15 1;
#X connect 9 0 10 0;
#X connect 10 0 13 0;
#X connect 11 0 12 0;
#X connect 12 0 8 2;
#X connect 13 0 8 1;
#X connect 14 0 8 0;
#X connect 15 0 25 0;
#X connect 15 1 25 1;
#X connect 16 0 15 2;
#X connect 17 0 5 0;
#X connect 18 0 6 0;
#X connect 19 0 28 0;
#X connect 19 0 42 0;
#X connect 20 0 21 0;
#X connect 21 0 7 0;
#X connect 23 0 9 0;
#X connect 24 0 19 1;
#X connect 25 0 26 0;
#X connect 25 1 26 1;
#X connect 26 0 1 0;
#X connect 26 1 2 0;
#X connect 27 0 19 0;
#X connect 28 0 29 0;
#X connect 29 0 38 0;
#X connect 30 0 25 0;
#X connect 30 1 25 1;
#X connect 31 0 30 0;
#X connect 32 0 36 0;
#X connect 33 0 35 0;
#X connect 33 0 37 0;
#X connect 34 0 36 0;
#X connect 36 0 33 0;
#X connect 37 0 31 0;
#X connect 38 0 39 0;
#X connect 39 0 22 0;
#X connect 41 0 27 0;
#X connect 43 0 16 0;
#X restore 892 781 pd ambience;
#N canvas 969 613 459 315 globalFX 0;
#X obj 43 17 inlet~;
#X obj 284 12 inlet~;
#X obj 41 234 outlet~;
#X obj 288 234 outlet~;
#X obj 117 60 e_chorus;
#X obj 256 51 e_sdelay 500;
#X obj 257 86 *~ 0.5;
#X obj 256 116 e_sdelay 250;
#N canvas 413 554 784 438 plateReverbUnit 0;
#X obj 68 45 inlet~;
#X obj 172 53 inlet~;
#X obj 52 240 outlet~;
#X obj 185 241 outlet~;
#X obj 108 159 e_platereverb;
#X obj 252 42 loadbang;
#X msg 252 93 predelay 0.535 \, bandwidth 22050 \, damping 22050 \,
decay 0.677165 \, input_diffusion1 0.850394 \, input_diffusion2 0.92126
\, decay_diffusion1 0.80315 \, decay_diffusion2 0.818898 \, excursion
0.11811 \, dry 0.1 \;;
#X connect 0 0 4 0;
#X connect 1 0 4 1;
#X connect 4 0 2 0;
#X connect 4 1 3 0;
#X connect 5 0 6 0;
#X connect 6 0 4 2;
#X restore 126 168 pd plateReverbUnit;
#X connect 0 0 4 0;
#X connect 1 0 5 0;
#X connect 4 0 8 0;
#X connect 4 1 8 1;
#X connect 5 0 6 0;
#X connect 5 0 8 0;
#X connect 6 0 7 0;
#X connect 7 0 8 1;
#X connect 8 0 2 0;
#X connect 8 1 3 0;
#X restore 314 791 pd globalFX;
#N canvas 1252 267 497 536 tremolo 0;
#X obj 45 28 inlet~;
#X obj 285 23 inlet~;
#X obj 27 365 outlet~;
#X obj 294 367 outlet~;
#X obj 50 286 e_tremolo;
#X obj 240 284 e_tremolo;
#X obj 129 57 r loadbang;
#X msg 204 134 freq 17;
#X obj 403 26 inlet;
#X msg 158 205 dry \$1;
#X obj 349 131 line;
#X floatatom 351 174 5 0 0 0 - - -;
#X msg 356 57 1;
#X msg 405 57 0 4000;
#X msg 93 141 freq 14;
#X connect 0 0 4 0;
#X connect 1 0 5 0;
#X connect 4 0 2 0;
#X connect 5 0 3 0;
#X connect 6 0 14 0;
#X connect 6 0 9 0;
#X connect 6 0 7 0;
#X connect 7 0 5 1;
#X connect 8 0 12 0;
#X connect 8 0 13 0;
#X connect 9 0 4 1;
#X connect 9 0 5 1;
#X connect 10 0 9 0;
#X connect 10 0 11 0;
#X connect 12 0 10 0;
#X connect 13 0 10 0;
#X connect 14 0 4 1;
#X restore 313 831 pd tremolo;
#X obj 806 49 bng 15 250 50 0 empty empty empty 17 7 0 10 -262144 -1
-1;
#N canvas 469 67 747 964 gdrone 0;
#X obj 167 793 outlet~;
#X obj 165 298 s_osc NAME saw;
#X obj 165 261 mtof;
#X obj 29 282 vsl 15 128 0 0.2 0 0 empty empty empty 0 -9 0 10 -262144
-1 -1 3810 1;
#X obj 263 298 s_osc NAME saw;
#X obj 263 262 mtof;
#X floatatom 167 113 5 0 0 0 - - -;
#X obj 263 192 - 24;
#X obj 364 297 s_osc NAME sin;
#X obj 364 263 mtof;
#X obj 363 191 -24;
#X obj 462 195 + 5;
#X obj 462 259 mtof;
#X obj 462 296 s_osc NAME saw;
#X obj 559 258 mtof;
#X obj 559 295 s_osc NAME saw;
#X obj 166 658 e_lop4;
#X obj 182 605 mtof;
#X floatatom 305 557 5 0 100 1 Filter_Q - -;
#X floatatom 464 474 5 5 130 1 Filter_Freq_(DONT_LET_THIS_GO_ABOVE_130)
- -;
#X obj 304 621 / 100;
#X obj 559 194 + 7;
#X obj 565 22 inlet;
#X obj 182 631 clip 0 22050;
#X text 344 582 comment;
#X obj 168 19 inlet;
#X text 607 23 Root note;
#X obj 169 73 s grabSoundIntensity;
#X obj 169 47 clip 0 1;
#X obj 465 383 r grabSoundIntensity;
#X text 51 308 Main Volume;
#X obj 30 202 r grabSoundIntensity;
#X obj 30 236 * 0.2;
#X obj 464 408 * 50;
#X obj 488 71 - 12;
#X obj 166 487 *~ 0;
#X obj 465 434 + 50;
#X obj 525 406 r loadbang;
#X obj 81 233 r loadbang;
#X msg 525 433 75;
#X obj 167 734 e_softclip;
#X msg 249 680 dry 0;
#X msg 260 712 drive 0.2;
#X msg 81 257 0.06;
#X connect 1 0 35 0;
#X connect 2 0 1 0;
#X connect 3 0 35 1;
#X connect 4 0 35 0;
#X connect 5 0 4 0;
#X connect 6 0 2 0;
#X connect 6 0 7 0;
#X connect 6 0 10 0;
#X connect 6 0 11 0;
#X connect 6 0 21 0;
#X connect 7 0 5 0;
#X connect 8 0 35 0;
#X connect 9 0 8 0;
#X connect 10 0 9 0;
#X connect 11 0 12 0;
#X connect 12 0 13 0;
#X connect 13 0 35 0;
#X connect 14 0 15 0;
#X connect 15 0 35 0;
#X connect 16 0 40 0;
#X connect 17 0 23 0;
#X connect 18 0 20 0;
#X connect 19 0 17 0;
#X connect 20 0 16 2;
#X connect 21 0 14 0;
#X connect 22 0 34 0;
#X connect 23 0 16 1;
#X connect 25 0 28 0;
#X connect 28 0 27 0;
#X connect 29 0 33 0;
#X connect 31 0 32 0;
#X connect 32 0 3 0;
#X connect 33 0 36 0;
#X connect 34 0 6 0;
#X connect 35 0 16 0;
#X connect 36 0 19 0;
#X connect 37 0 39 0;
#X connect 38 0 43 0;
#X connect 39 0 19 0;
#X connect 40 0 0 0;
#X connect 41 0 40 1;
#X connect 42 0 40 1;
#X connect 43 0 3 0;
#X restore 705 764 pd gdrone;
#X obj 1093 750 r rootnote;
#N canvas 934 156 964 612 clickEffect 0;
#X obj 73 322 makenote 20 1000;
#X obj 73 362 pack 0 0;
#X floatatom 102 238 5 0 0 0 - - -;
#X obj 73 395 u_makepoly 8 1 s_rhodey \$0-MYINST;
#N canvas 606 192 458 329 pentatonic 0;
#X obj 29 34 inlet;
#X obj 207 34 inlet;
#X text 27 10 pentatonic step;
#X text 207 11 base note;
#X text 311 9 Pentatonic copy of RJlib's m_majorscale;
#X obj 30 79 t a a;
#X obj 235 123 loadbang;
#X obj 86 151 * 12;
#X obj 24 214 +;
#X obj 25 248 + \$1;
#X obj 23 278 outlet;
#X obj 28 120 mod 5;
#X obj 86 119 div 5;
#X floatatom 42 150 5 0 0 0 - - -;
#X obj 239 217 table \$0-penta3 5;
#X obj 234 183 s \$0-penta3;
#X obj 25 185 tabread \$0-penta3;
#X msg 235 152 0 0 2 5 2 5;
#X connect 0 0 5 0;
#X connect 1 0 9 1;
#X connect 5 0 11 0;
#X connect 5 1 12 0;
#X connect 6 0 17 0;
#X connect 7 0 8 1;
#X connect 8 0 9 0;
#X connect 9 0 10 0;
#X connect 11 0 13 0;
#X connect 11 0 16 0;
#X connect 12 0 7 0;
#X connect 16 0 8 0;
#X connect 17 0 15 0;
#X restore 73 193 pd pentatonic;
#X obj 73 152 random 16;
#X obj 71 30 inlet;
#X text 56 4 Bang to play;
#X obj 75 584 outlet~;
#X obj 497 32 inlet;
#X text 540 9 Root note;
#X floatatom 308 117 5 0 0 0 - - -;
#X text 389 5 Melody seed (unique);
#X obj 800 227 vsl 15 128 0 1 0 0 empty empty Synth_volume 0 -9 0 10
-261682 -1 -1 6350 1;
#X obj 75 527 *~ 0.5;
#X obj 124 117 bng 15 250 50 0 empty empty empty 17 7 0 10 -262144
-1 -1;
#X obj 403 69 + 12;
#X obj 801 143 r loadbang;
#X msg 800 173 0.5;
#X msg 243 282 tone 1;
#X obj 172 27 inlet;
#X msg 300 283 decay 2;
#X msg 622 288 decay 1000;
#X obj 407 222 select click rollover;
#X text 173 5 Type (click or rollover);
#X obj 74 489 e_tremolo;
#X msg 365 285 dry 1;
#X msg 502 290 dry 0;
#X obj 305 492 *;
#X obj 419 412 line;
#X msg 412 286 1;
#X msg 466 368 0;
#X obj 99 89 s clickTrigger;
#X obj 74 276 - 24;
#X obj 85 553 e_chorus;
#X floatatom 430 444 5 0 0 0 - - -;
#X msg 497 367 1 200;
#X msg 552 289 tone 0.2;
#X obj 204 430 r loadbang;
#X msg 203 466 freq 5;
#X connect 0 0 1 0;
#X connect 0 1 1 1;
#X connect 1 0 3 0;
#X connect 3 0 25 0;
#X connect 4 0 2 0;
#X connect 4 0 33 0;
#X connect 5 0 4 0;
#X connect 6 0 5 0;
#X connect 6 0 32 0;
#X connect 9 0 16 0;
#X connect 11 0 4 1;
#X connect 13 0 28 1;
#X connect 14 0 34 0;
#X connect 15 0 5 0;
#X connect 16 0 11 0;
#X connect 17 0 18 0;
#X connect 18 0 13 0;
#X connect 19 0 3 1;
#X connect 20 0 23 0;
#X connect 21 0 3 1;
#X connect 22 0 3 1;
#X connect 23 0 19 0;
#X connect 23 0 21 0;
#X connect 23 0 26 0;
#X connect 23 0 30 0;
#X connect 23 1 37 0;
#X connect 23 1 22 0;
#X connect 23 1 27 0;
#X connect 23 1 31 0;
#X connect 23 1 36 0;
#X connect 25 0 14 0;
#X connect 26 0 25 1;
#X connect 27 0 25 1;
#X connect 28 0 14 1;
#X connect 29 0 35 0;
#X connect 29 0 28 0;
#X connect 30 0 29 0;
#X connect 31 0 29 0;
#X connect 33 0 0 0;
#X connect 34 0 8 0;
#X connect 36 0 29 0;
#X connect 37 0 3 1;
#X connect 38 0 39 0;
#X connect 39 0 25 1;
#X restore 1021 781 pd clickEffect;
#X obj 559 370 bng 15 250 50 0 empty empty empty 17 7 0 10 -262144
-1 -1;
#X obj 550 390 s osc_clickConst;
#X obj 603 359 s osc_rollover;
#X obj 613 336 bng 15 250 50 0 empty empty empty 17 7 0 10 -262144
-1 -1;
#X obj 1019 744 bng 15 250 50 0 empty empty empty 17 7 0 10 -262144
-1 -1;
#X obj 971 608 r osc_clickConst;
#X obj 1115 607 r osc_rollover;
#X obj 1056 743 bng 15 250 50 0 empty empty empty 17 7 0 10 -262144
-1 -1;
#X msg 992 656 symbol click;
#X msg 1118 656 symbol rollover;
#N canvas 969 613 459 315 globalFX 0;
#X obj 43 17 inlet~;
#X obj 284 12 inlet~;
#X obj 41 234 outlet~;
#X obj 288 234 outlet~;
#N canvas 413 554 784 438 plateReverbUnit 0;
#X obj 68 45 inlet~;
#X obj 172 53 inlet~;
#X obj 52 240 outlet~;
#X obj 185 241 outlet~;
#X obj 108 159 e_platereverb;
#X obj 252 42 loadbang;
#X msg 251 92 predelay 0.535 \, bandwidth 22050 \, damping 22050 \,
decay 0.677165 \, input_diffusion1 0.850394 \, input_diffusion2 0.92126
\, decay_diffusion1 0.80315 \, decay_diffusion2 0.818898 \, excursion
0.11811 \, dry 0.5 \;;
#X connect 0 0 4 0;
#X connect 1 0 4 1;
#X connect 4 0 2 0;
#X connect 4 1 3 0;
#X connect 5 0 6 0;
#X connect 6 0 4 2;
#X restore 126 168 pd plateReverbUnit;
#X connect 0 0 4 0;
#X connect 1 0 4 1;
#X connect 4 0 2 0;
#X connect 4 1 3 0;
#X restore 1022 834 pd globalFX;
#X obj 695 302 bng 15 250 50 0 empty empty empty 17 7 0 10 -262144
-1 -1;
#X obj 663 325 s osc_playCustomConst;
#X obj 25 574 r osc_playCustomConst;
#N canvas 1467 120 785 853 clapEffect 0;
#X obj 36 22 inlet;
#X text 83 20 Bang to play;
#X obj 39 384 s_playtable;
#X msg 101 348 sr 44100;
#X obj 45 700 outlet~;
#X obj 102 314 r loadbang;
#X obj 41 469 *~;
#X obj 281 298 vsl 15 128 0 1 0 0 empty empty Sample_Volume 0 -9 0
10 -261682 -1 -1 6350 1;
#X obj 251 166 soundfiler;
#X obj 252 73 r loadbang;
#X obj 282 230 r loadbang;
#X msg 389 411 pan-r 0.787402 \, delay-r 400 \, delay 500 \, size-r
0 \, size 100 \, vol-r 0.133858 \, vol 0.409449 \, bw 1 \, phase 0.4819
\, grain-rate 30 \,;
#X msg 281 256 0.5;
#X obj 68 64 outlet;
#X obj 251 195 table clap-sample;
#X obj 103 507 delwrite~ \$0-clap-delay 2000;
#X obj 88 566 e_graindelread TAG \$0-clap-delay;
#X msg 251 114 read -resize ../samples/Su-Audio-thunder-02.wav clap-sample
;
#X msg 36 283 clap-sample 1 2;
#X connect 0 0 13 0;
#X connect 0 0 18 0;
#X connect 2 0 6 0;
#X connect 3 0 2 1;
#X connect 5 0 3 0;
#X connect 6 0 4 0;
#X connect 6 0 15 0;
#X connect 7 0 6 1;
#X connect 9 0 17 0;
#X connect 10 0 12 0;
#X connect 11 0 16 1;
#X connect 12 0 7 0;
#X connect 16 0 4 0;
#X connect 16 1 4 0;
#X connect 17 0 8 0;
#X connect 18 0 2 0;
#X restore 1238 784 pd clapEffect;
#X obj 388 163 OSCroute /playConstellation /grab /keyboard /selectConstellation
/rollover /playCustomConstellation /clap;
#X obj 720 256 bng 15 250 50 0 empty empty empty 17 7 0 10 -262144
-1 -1;
#X obj 726 288 s osc_clap;
#X obj 1236 686 r osc_clap;
#X obj 1237 727 bng 30 250 50 0 empty empty empty 17 7 0 10 -257985
-1 -1;
#N canvas 297 267 953 719 keysynth 1;
#X obj 73 264 makenote 20 1000;
#X obj 73 304 pack 0 0;
#X floatatom 102 238 5 0 0 0 - - -;
#X obj 73 395 u_makepoly 8 1 s_rhodey \$0-MYINST;
#N canvas 606 192 458 329 pentatonic 0;
#X obj 29 34 inlet;
#X obj 207 34 inlet;
#X text 27 10 pentatonic step;
#X text 207 11 base note;
#X text 311 9 Pentatonic copy of RJlib's m_majorscale;
#X obj 30 79 t a a;
#X obj 235 123 loadbang;
#X msg 235 152 0 0 2 5 7 9;
#X obj 86 151 * 12;
#X obj 24 214 +;
#X obj 25 248 + \$1;
#X obj 23 278 outlet;
#X obj 28 120 mod 5;
#X obj 86 119 div 5;
#X floatatom 42 150 5 0 0 0 - - -;
#X obj 232 215 table \$0-penta4 5;
#X obj 234 183 s \$0-penta4;
#X obj 25 185 tabread \$0-penta4;
#X connect 0 0 5 0;
#X connect 1 0 10 1;
#X connect 5 0 12 0;
#X connect 5 1 13 0;
#X connect 6 0 7 0;
#X connect 7 0 16 0;
#X connect 8 0 9 1;
#X connect 9 0 10 0;
#X connect 10 0 11 0;
#X connect 12 0 14 0;
#X connect 12 0 17 0;
#X connect 13 0 8 0;
#X connect 17 0 9 0;
#X restore 77 187 pd pentatonic;
#X obj 76 124 random 16;
#X obj 71 30 inlet;
#X text 56 4 Bang to play;
#X obj 70 631 outlet~;
#X obj 497 32 inlet;
#X text 540 9 Root note;
#X floatatom 308 117 5 0 0 0 - - -;
#X text 389 5 Melody seed (unique);
#X obj 886 198 vsl 15 128 0 1 0 0 empty empty Synth_volume 0 -9 0 10
-261682 -1 -1 6350 1;
#X obj 73 598 *~ 0.5;
#X obj 120 80 bng 15 250 50 0 empty empty empty 17 7 0 10 -262144 -1
-1;
#X obj 887 114 r loadbang;
#X msg 886 144 0.5;
#X obj 195 264 makenote 20 1000;
#X obj 195 304 pack 0 0;
#X obj 312 263 makenote 20 1000;
#X obj 312 303 pack 0 0;
#X obj 449 261 makenote 20 1000;
#X obj 449 299 pack 0 0;
#X obj 570 258 makenote 20 1000;
#X obj 570 298 pack 0 0;
#X obj 573 216 + 17;
#X obj 691 257 makenote 20 1000;
#X obj 691 297 pack 0 0;
#X obj 694 215 + 24;
#X obj 201 223 - 12;
#X obj 315 220 - 7;
#X obj 453 218 + 5;
#X obj 401 69 - 12;
#X obj 135 454 delwrite~ \$0-clap-open-delay 2000;
#X obj 219 570 e_graindelread TAG \$0-clap-open-delay;
#X obj 513 366 r loadbang;
#X msg 513 416 pan-r 0.787402 \, delay-r 400 \, delay 500 \, size-r
0 \, size 100 \, vol-r 0.833858 \, vol 0.809449 \, bw 1 \, phase 0.4819
\, grain-rate 30 \,;
#X connect 0 0 1 0;
#X connect 0 1 1 1;
#X connect 1 0 3 0;
#X connect 3 0 14 0;
#X connect 3 0 34 0;
#X connect 4 0 0 0;
#X connect 4 0 2 0;
#X connect 4 0 26 0;
#X connect 4 0 29 0;
#X connect 4 0 30 0;
#X connect 4 0 31 0;
#X connect 4 0 32 0;
#X connect 5 0 4 0;
#X connect 6 0 5 0;
#X connect 9 0 33 0;
#X connect 11 0 4 1;
#X connect 13 0 14 1;
#X connect 14 0 8 0;
#X connect 15 0 5 0;
#X connect 16 0 17 0;
#X connect 17 0 13 0;
#X connect 18 0 19 0;
#X connect 18 1 19 1;
#X connect 19 0 3 0;
#X connect 20 0 21 0;
#X connect 20 1 21 1;
#X connect 21 0 3 0;
#X connect 22 0 23 0;
#X connect 22 1 23 1;
#X connect 23 0 3 0;
#X connect 24 0 25 0;
#X connect 24 1 25 1;
#X connect 25 0 3 0;
#X connect 26 0 24 0;
#X connect 27 0 28 0;
#X connect 27 1 28 1;
#X connect 28 0 3 0;
#X connect 29 0 27 0;
#X connect 30 0 18 0;
#X connect 31 0 20 0;
#X connect 32 0 22 0;
#X connect 33 0 11 0;
#X connect 35 0 8 0;
#X connect 36 0 37 0;
#X connect 37 0 35 1;
#X restore 1334 783 pd keysynth;
#N canvas 969 613 459 315 globalFX 0;
#X obj 43 17 inlet~;
#X obj 284 12 inlet~;
#X obj 41 234 outlet~;
#X obj 288 234 outlet~;
#N canvas 413 554 784 438 plateReverbUnit 0;
#X obj 68 45 inlet~;
#X obj 172 53 inlet~;
#X obj 52 240 outlet~;
#X obj 185 241 outlet~;
#X obj 108 159 e_platereverb;
#X obj 252 42 loadbang;
#X msg 251 92 predelay 0.535 \, bandwidth 22050 \, damping 22050 \,
decay 0.677165 \, input_diffusion1 0.850394 \, input_diffusion2 0.92126
\, decay_diffusion1 0.80315 \, decay_diffusion2 0.818898 \, excursion
0.11811 \, dry 0.5 \;;
#X connect 0 0 4 0;
#X connect 1 0 4 1;
#X connect 4 0 2 0;
#X connect 4 1 3 0;
#X connect 5 0 6 0;
#X connect 6 0 4 2;
#X restore 126 168 pd plateReverbUnit;
#X connect 0 0 4 0;
#X connect 1 0 4 1;
#X connect 4 0 2 0;
#X connect 4 1 3 0;
#X restore 1239 838 pd globalFX;
#X obj 1396 750 r rootnote;
#N canvas 1378 209 450 300 snare 1;
#X obj 29 15 inlet;
#X obj 27 260 outlet~;
#X obj 27 153 s_drumelectro;
#X msg 29 85 cp;
#X connect 0 0 3 0;
#X connect 2 0 1 0;
#X connect 3 0 2 0;
#X restore 1447 786 pd snare;
#X obj 17 9 r loadbang;
#X text 77 495 Click here to test 'constellation open';
#X text 361 565 Click here to test 'keyboard press';
#X text 1260 707 Click here to test 'clap';
#X text 498 135 OSC input routing;
#X text 311 50 Change this argument to alter the listening port no.
for OSC;
#X connect 4 0 5 0;
#X connect 4 0 30 0;
#X connect 5 0 19 0;
#X connect 5 1 19 1;
#X connect 6 0 7 0;
#X connect 6 0 8 0;
#X connect 7 0 5 1;
#X connect 8 0 5 2;
#X connect 10 0 47 1;
#X connect 11 0 5 4;
#X connect 12 0 9 0;
#X connect 12 0 41 0;
#X connect 13 0 16 0;
#X connect 14 0 15 0;
#X connect 15 0 16 0;
#X connect 16 0 12 0;
#X connect 18 0 17 0;
#X connect 18 0 65 0;
#X connect 19 0 3 0;
#X connect 19 1 3 1;
#X connect 20 0 5 0;
#X connect 20 1 5 2;
#X connect 20 2 5 3;
#X connect 20 3 5 0;
#X connect 24 0 20 0;
#X connect 24 0 30 0;
#X connect 27 0 47 0;
#X connect 28 0 27 0;
#X connect 30 0 44 1;
#X connect 30 0 44 0;
#X connect 30 1 45 2;
#X connect 31 0 32 0;
#X connect 33 0 3 0;
#X connect 33 1 3 1;
#X connect 34 0 36 0;
#X connect 34 1 36 1;
#X connect 35 0 38 0;
#X connect 36 0 3 0;
#X connect 36 1 3 1;
#X connect 37 0 34 1;
#X connect 38 0 34 0;
#X connect 40 0 38 0;
#X connect 42 0 30 0;
#X connect 43 0 3 0;
#X connect 43 1 3 1;
#X connect 44 0 45 0;
#X connect 44 1 45 1;
#X connect 45 0 3 0;
#X connect 45 1 3 1;
#X connect 46 0 32 0;
#X connect 47 0 33 0;
#X connect 48 0 49 2;
#X connect 49 0 60 0;
#X connect 49 0 60 1;
#X connect 54 0 49 0;
#X connect 55 0 54 0;
#X connect 55 0 58 0;
#X connect 56 0 59 0;
#X connect 56 0 57 0;
#X connect 57 0 49 0;
#X connect 58 0 49 1;
#X connect 59 0 49 1;
#X connect 60 0 3 0;
#X connect 60 1 3 1;
#X connect 63 0 20 0;
#X connect 64 0 71 0;
#X connect 64 0 71 1;
#X connect 65 0 21 0;
#X connect 65 0 25 0;
#X connect 65 1 22 0;
#X connect 65 1 26 0;
#X connect 65 2 23 0;
#X connect 65 2 39 0;
#X connect 65 3 50 0;
#X connect 65 3 51 0;
#X connect 65 4 53 0;
#X connect 65 4 52 0;
#X connect 65 5 61 0;
#X connect 65 5 62 0;
#X connect 65 6 66 0;
#X connect 65 6 67 0;
#X connect 68 0 69 0;
#X connect 69 0 64 0;
#X connect 69 0 70 0;
#X connect 69 0 73 0;
#X connect 70 0 71 0;
#X connect 70 0 71 1;
#X connect 71 0 3 0;
#X connect 71 1 3 1;
#X connect 72 0 70 1;
#X connect 73 0 71 0;
#X connect 73 0 71 1;
#X connect 74 0 13 0;
