#N canvas 235 155 960 558 10;
#X floatatom -103 25 5 0 0 0 - - -;
#X obj -100 7 hsl 128 15 0 100 0 0 empty empty empty -2 -8 0 10 -262144
-1 -1 1397 1;
#X obj -41 84 hsl 128 15 0 360 0 0 empty empty empty -2 -8 0 10 -262144
-1 -1 0 1;
#X msg -103 -18 0;
#X msg 45 -18 50;
#X msg 71 -18 100;
#X msg 138 -73 \; pd dsp \$1;
#X obj 138 -96 tgl 20 0 empty empty dsp_on/off 22 10 0 10 -262144 -1
-1 1 1;
#X msg 5 50 0;
#X msg 37 50 90;
#X msg 59 50 135;
#X msg 91 50 270;
#N canvas 13 112 542 300 8vu~ 0;
#X obj 104 21 inlet~;
#X obj 103 48 env~;
#X obj 103 72 - 96;
#X obj 102 106 vu 12 120 empty empty -1 -8 0 10 -66577 -1 0 0;
#X obj 148 21 inlet~;
#X obj 147 48 env~;
#X obj 147 72 - 96;
#X obj 120 106 vu 12 120 empty empty -1 -8 0 10 -66577 -1 0 0;
#X obj 194 21 inlet~;
#X obj 193 48 env~;
#X obj 193 72 - 96;
#X obj 138 106 vu 12 120 empty empty -1 -8 0 10 -66577 -1 0 0;
#X obj 240 21 inlet~;
#X obj 239 48 env~;
#X obj 239 72 - 96;
#X obj 156 106 vu 12 120 empty empty -1 -8 0 10 -66577 -1 0 0;
#X connect 0 0 1 0;
#X connect 1 0 2 0;
#X connect 2 0 3 0;
#X connect 4 0 5 0;
#X connect 5 0 6 0;
#X connect 6 0 7 0;
#X connect 8 0 9 0;
#X connect 9 0 10 0;
#X connect 10 0 11 0;
#X connect 12 0 13 0;
#X connect 13 0 14 0;
#X connect 14 0 15 0;
#X coords 0 -1 1 1 70 130 2 100 100;
#X restore -242 189 pd 8vu~;
#X msg -44 50 157.5;
#N canvas 28 174 764 370 signals 0;
#X obj 14 79 snapshot~;
#X obj 15 34 inlet~;
#X floatatom 105 102 8 0 0 0 - - -;
#X obj 27 56 r metrobang;
#X obj 104 79 snapshot~;
#X obj 105 34 inlet~;
#X floatatom 162 102 8 0 0 0 - - -;
#X obj 117 56 r metrobang;
#X obj 189 77 snapshot~;
#X obj 190 32 inlet~;
#X floatatom 218 102 8 0 0 0 - - -;
#X obj 202 54 r metrobang;
#X obj 279 77 snapshot~;
#X obj 280 32 inlet~;
#X floatatom 275 102 8 0 0 0 - - -;
#X obj 292 54 r metrobang;
#X obj 409 102 metro 250;
#X obj 410 79 tgl 15 0 empty empty empty 17 7 0 10 -262144 -1 -1 1
1;
#X obj 408 58 loadbang;
#X obj 409 127 s metrobang;
#X floatatom 105 122 8 0 0 0 - - -;
#X obj -4 184 atodb;
#X floatatom 162 122 8 0 0 0 - - -;
#X obj 53 184 atodb;
#X floatatom 218 122 8 0 0 0 - - -;
#X obj 109 184 atodb;
#X floatatom 275 122 8 0 0 0 - - -;
#X obj 166 184 atodb;
#X text 72 105 amp;
#X text 72 127 dB;
#X connect 0 0 2 0;
#X connect 1 0 0 0;
#X connect 2 0 21 0;
#X connect 3 0 0 0;
#X connect 4 0 6 0;
#X connect 5 0 4 0;
#X connect 6 0 23 0;
#X connect 7 0 4 0;
#X connect 8 0 10 0;
#X connect 9 0 8 0;
#X connect 10 0 25 0;
#X connect 11 0 8 0;
#X connect 12 0 14 0;
#X connect 13 0 12 0;
#X connect 14 0 27 0;
#X connect 15 0 12 0;
#X connect 16 0 19 0;
#X connect 17 0 16 0;
#X connect 18 0 17 0;
#X connect 21 0 20 0;
#X connect 23 0 22 0;
#X connect 25 0 24 0;
#X connect 27 0 26 0;
#X coords 0 -1 1 1 230 40 2 100 100;
#X restore -162 279 pd signals;
#X msg 18 -18 20;
#X text 31 135 arg1: initial separation;
#X text 32 151 arg2: initial azimuth;
#X obj 127 295 dac~ 1 2 3 4;
#X obj 189 85 vradio 15 1 0 3 empty empty empty 0 -8 0 10 -262144 -1
-1 1;
#X floatatom -44 104 10 0 0 0 - - -;
#X text -334 -106 panner_1x4~ - External for 1 -> 4 channel 2D spatialisation
;
#X msg -42 -18 10;
#X obj -269 8 f 0;
#X obj -238 8 + 45;
#X floatatom -269 54 5 0 0 0 - - -;
#X obj -269 -20 bng 15 250 50 0 empty empty empty 17 7 0 10 -262144
-1 -1;
#X obj -269 31 mod 360;
#X text 32 167 arg3: speaker arrangement;
#X text 208 114 2 - diamond;
#X text 207 83 0 - Quad (odd even);
#X text 208 99 1 - ITU (odd even);
#X text -246 -22 step 45;
#X text -228 -74 Optimal separation: 5 for Quad and diamond;
#X text -227 -59 Optimal separation: 11 for ITU;
#X msg -72 -18 5;
#X msg -8 -18 11;
#X text 35 -63 (about -3dB);
#X obj -149 3 r sep;
#X obj -94 49 r ang;
#N canvas 564 64 384 702 grid 0;
#X obj 148 102 grid grid1 200 -100 100 200 -100 100 1 1 1 10 10 510
130;
#N canvas 417 385 450 300 d 0;
#X obj 94 31 inlet x;
#X obj 162 31 inlet y;
#X obj 95 59 *;
#X obj 162 59 *;
#X obj 134 154 +;
#X obj 134 132 f;
#X obj 162 82 f;
#X obj 162 106 t b f;
#X obj 134 177 sqrt;
#X obj 137 202 outlet distance;
#X connect 0 0 2 0;
#X connect 0 0 2 1;
#X connect 1 0 3 0;
#X connect 1 0 3 1;
#X connect 2 0 5 0;
#X connect 3 0 6 0;
#X connect 4 0 8 0;
#X connect 5 0 4 0;
#X connect 6 0 7 0;
#X connect 7 0 5 0;
#X connect 7 1 4 1;
#X connect 8 0 9 0;
#X restore 207 346 pd d;
#N canvas 546 161 602 554 angle 0;
#X obj 62 216 /;
#X obj 77 193 sqrt;
#X obj 77 144 *;
#X obj 182 144 *;
#X obj 77 169 +;
#X obj 62 240 acos;
#X text 305 155 acos (x/sqrt(x^2 + y^2));
#X obj 62 86 f;
#X obj 179 85 f;
#X obj 62 114 t f f;
#X obj 62 27 inlet x;
#X obj 160 27 inlet y;
#X obj 160 50 t b f f;
#X obj 62 51 t f b f;
#X obj 62 273 expr if($f2 > 0 && $f3 > 0 \, 1.5708-$f1 \, if ($f3 <=0
\, $f1+1.5708 \, 7.85398- $f1));
#X obj 62 328 expr $f1*180/3.14159;
#X obj 112 399 outlet deg;
#X connect 0 0 5 0;
#X connect 1 0 0 1;
#X connect 2 0 4 0;
#X connect 3 0 4 1;
#X connect 4 0 1 0;
#X connect 5 0 14 0;
#X connect 7 0 9 0;
#X connect 8 0 3 0;
#X connect 8 0 3 1;
#X connect 9 0 0 0;
#X connect 9 1 2 0;
#X connect 9 1 2 1;
#X connect 10 0 13 0;
#X connect 11 0 12 0;
#X connect 12 0 7 0;
#X connect 12 1 8 0;
#X connect 12 2 14 2;
#X connect 13 0 7 0;
#X connect 13 1 8 0;
#X connect 13 2 14 1;
#X connect 14 0 15 0;
#X connect 15 0 16 0;
#X restore 245 346 pd angle;
#X obj 207 374 s sep;
#X obj 170 48 inlet;
#X obj 220 48 loadbang;
#X obj 245 374 s ang;
#X obj 246 199 cnv 5 5 5 empty empty empty 20 12 0 14 -257985 -66577
0;
#X obj 306 49 line;
#X obj 105 16 polar;
#X obj 141 68 bng 15 250 50 0 empty empty empty 17 7 0 10 -262144 -1
-1;
#X obj 245 562 pol2cart;
#X obj 245 465 t b f;
#X obj 245 624 pack f f;
#X msg 245 645 goto \$1 \$2;
#X obj 245 601 + 100;
#X obj 290 600 + 100;
#X obj 106 116 tgl 15 0 empty empty empty 17 7 0 10 -262144 -1 -1 0
1;
#N canvas 8 68 450 300 cricle2 0;
#X obj 21 12 inlet;
#X obj 21 36 sel 1 0;
#X msg 219 93 stop;
#X obj 65 136 delay 6000;
#X obj 21 201 outlet;
#X obj 65 115 t b;
#X obj 21 176 line;
#X obj 156 20 inlet speed;
#X msg 21 92 0 \, 6.28319 \$1;
#X obj 21 68 f 6000;
#X obj 66 157 t b;
#X connect 0 0 1 0;
#X connect 1 0 9 0;
#X connect 1 1 2 0;
#X connect 2 0 3 0;
#X connect 2 0 6 0;
#X connect 3 0 10 0;
#X connect 5 0 3 0;
#X connect 6 0 4 0;
#X connect 7 0 9 1;
#X connect 7 0 3 1;
#X connect 8 0 6 0;
#X connect 9 0 8 0;
#X connect 9 0 5 0;
#X connect 10 0 9 0;
#X restore 245 440 pd cricle2;
#X floatatom 106 144 5 0 0 0 - - -;
#X text 104 99 circle;
#X msg 170 81 goto 100 100;
#X obj 245 536 f 50;
#X obj 266 486 r sep2;
#X obj 33 244 s sep2;
#X floatatom 107 174 5 0 100 0 - - -;
#X text 101 158 radius;
#X text 103 127 speed;
#X obj 264 80 r goto;
#X obj 245 673 s goto;
#X connect 0 0 1 0;
#X connect 0 0 2 0;
#X connect 0 1 2 1;
#X connect 0 1 1 1;
#X connect 1 0 3 0;
#X connect 2 0 6 0;
#X connect 4 0 21 0;
#X connect 5 0 21 0;
#X connect 10 0 0 0;
#X connect 11 0 15 0;
#X connect 11 1 16 0;
#X connect 12 0 22 0;
#X connect 12 1 11 1;
#X connect 13 0 14 0;
#X connect 14 0 29 0;
#X connect 15 0 13 0;
#X connect 16 0 13 1;
#X connect 17 0 18 0;
#X connect 18 0 12 0;
#X connect 19 0 18 1;
#X connect 21 0 0 0;
#X connect 22 0 11 0;
#X connect 23 0 22 1;
#X connect 25 0 24 0;
#X connect 28 0 0 0;
#X coords 0 -1 1 1 250 204 2 100 100;
#X restore 362 28 pd grid;
#X obj 362 1 bng 15 250 50 0 empty empty empty 17 7 0 10 -262144 -1
-1;
#X text 381 -1 center;
#X text 458 -14 control via [grid];
#X text 442 -1 you can also do a circle;
#X obj -284 84 noise~;
#X obj -183 86 tgl 15 0 empty empty empty 17 7 0 10 -262144 -1 -1 0
1;
#X obj -237 84 sig~ 1;
#X obj -161 134 panner_1x4~ 20 157.5 0;
#N canvas 5 68 450 300 choice~ 0;
#X obj 119 52 inlet~;
#X obj 176 52 inlet~;
#X obj 119 126 *~ 1;
#X obj 171 125 *~ 0;
#X obj 248 50 inlet;
#X obj 119 161 outlet~;
#X obj 246 80 != 1;
#X connect 0 0 2 0;
#X connect 1 0 3 0;
#X connect 2 0 5 0;
#X connect 3 0 5 0;
#X connect 4 0 2 1;
#X connect 4 0 6 0;
#X connect 6 0 3 1;
#X restore -283 114 pd choice~;
#X text -132 -39 inlet2: separation (0 none - 100 max);
#X text -44 32 inlet3: azimuth (degrees);
#X text 187 65 inlet4: Speaker arrangements:;
#X text 217 295 Remember that at least 4 outputs must be set up in
audio card configuration (e.g. jack);
#X text -331 342 version 1 - September 2010 - rev 2012;
#X text -330 362 Copyright (C) 2010 - 2011 - 2012 Conservatorio di
Santa Cecilia EMuTeam web: www.emufest.org;
#X text -330 393 Pd version: Lorenzo Sutton - lorenzofsutton@gmail.com
;
#X connect 0 0 48 1;
#X connect 1 0 0 0;
#X connect 2 0 20 0;
#X connect 3 0 1 0;
#X connect 4 0 1 0;
#X connect 5 0 1 0;
#X connect 7 0 6 0;
#X connect 8 0 2 0;
#X connect 9 0 2 0;
#X connect 10 0 2 0;
#X connect 11 0 2 0;
#X connect 13 0 2 0;
#X connect 15 0 1 0;
#X connect 19 0 48 3;
#X connect 20 0 48 2;
#X connect 22 0 1 0;
#X connect 23 0 24 0;
#X connect 23 0 27 0;
#X connect 24 0 23 1;
#X connect 25 0 20 0;
#X connect 26 0 23 0;
#X connect 27 0 25 0;
#X connect 35 0 1 0;
#X connect 36 0 1 0;
#X connect 38 0 0 0;
#X connect 39 0 2 0;
#X connect 41 0 40 0;
#X connect 45 0 49 0;
#X connect 46 0 49 2;
#X connect 47 0 49 1;
#X connect 48 0 12 0;
#X connect 48 0 14 0;
#X connect 48 0 18 0;
#X connect 48 1 12 1;
#X connect 48 1 14 1;
#X connect 48 1 18 1;
#X connect 48 2 12 2;
#X connect 48 2 14 2;
#X connect 48 2 18 2;
#X connect 48 3 12 3;
#X connect 48 3 14 3;
#X connect 48 3 18 3;
#X connect 49 0 48 0;

